<?xml version="1.0" encoding="iso-8859-1"?>
<!-- Uploaded to: SVG Repo, www.svgrepo.com, Generator: SVG Repo Mixer Tools -->
<svg fill="#000000" height="800px" width="800px" version="1.1" id="Layer_1" xmlns="http://www.w3.org/2000/svg" xmlns:xlink="http://www.w3.org/1999/xlink" 
	 viewBox="0 0 512 512" xml:space="preserve">
<g transform="translate(1 1)">
	<g>
		<g>
			<path d="M434.2,416.707h-256c-5.12,0-8.533,3.413-8.533,8.533s3.413,8.533,8.533,8.533h256c5.12,0,8.533-3.413,8.533-8.533
				S439.32,416.707,434.2,416.707z"/>
			<path d="M186.733,450.84H75.8c-14.507,0-25.6-11.093-25.6-25.6s11.093-25.6,25.6-25.6h196.267c5.12,0,8.533-3.413,8.533-8.533
				s-3.413-8.533-8.533-8.533H75.8c-23.893,0-42.667,18.773-42.667,42.667s18.773,42.667,42.667,42.667h110.933
				c5.12,0,8.533-3.413,8.533-8.533C195.267,454.253,191.853,450.84,186.733,450.84z"/>
			<path d="M434.2,382.573H314.733c-5.12,0-8.533,3.413-8.533,8.533s3.413,8.533,8.533,8.533H434.2c5.12,0,8.533-3.413,8.533-8.533
				S439.32,382.573,434.2,382.573z"/>
			<path d="M314.733,450.84H229.4c-5.12,0-8.533,3.413-8.533,8.533c0,5.12,3.413,8.533,8.533,8.533h85.333
				c5.12,0,8.533-3.413,8.533-8.533C323.267,454.253,319.853,450.84,314.733,450.84z"/>
			<path d="M434.2,450.84h-76.8c-5.12,0-8.533,3.413-8.533,8.533c0,5.12,3.413,8.533,8.533,8.533h76.8
				c5.12,0,8.533-3.413,8.533-8.533C442.733,454.253,439.32,450.84,434.2,450.84z"/>
			<path d="M84.333,416.707c-5.12,0-8.533,3.413-8.533,8.533s3.413,8.533,8.533,8.533h51.2c5.12,0,8.533-3.413,8.533-8.533
				s-3.413-8.533-8.533-8.533H84.333z"/>
			<path d="M254.147,229.827c-19.627,0-40.96-18.773-55.467-46.933c-1.707-4.267-6.827-5.12-11.093-3.413s-5.12,6.827-3.413,11.093
				c13.653,26.453,39.253,55.467,70.827,55.467c5.12,0,7.68-2.56,7.68-7.68S259.267,229.827,254.147,229.827z"/>
			<path d="M502.467,263.107h-51.2h-34.133H307.488c10.761-7.265,20.591-16.51,29.213-27.063c4.055,1.054,8.11,1.463,12.165,1.463
				c28.16,0,51.2-23.04,52.053-52.907c0-18.6-10.559-35.791-26.561-44.544c0.065-1.657,0.108-3.309,0.108-4.95
				c0-5.12-3.413-8.533-8.533-8.533H144.067c-5.12,0-8.533,3.413-8.533,8.533c0,47.052,27.133,101.1,66.979,128H127H75.8H7.533
				c-5.12,0-8.533,3.413-8.533,8.533v85.333c0,5.12,3.413,8.533,8.533,8.533H27.34C10.015,379.544-1,401.011-1,425.24
				c0,42.667,34.133,76.8,76.8,76.8h418.133c3.413,0,5.973-1.707,7.68-4.267c1.707-2.56,1.707-5.973,0-8.533
				c-11.093-19.627-17.067-41.813-17.067-64c0-20.595,5.155-41.186,14.766-59.733h3.154c5.12,0,8.533-3.413,8.533-8.533V271.64
				C511,266.52,507.587,263.107,502.467,263.107z M493.933,348.44H459.8v-68.267h34.133V348.44z M442.733,280.173v68.267h-17.067
				v-68.267H442.733z M383,186.307c0,18.773-16.213,34.987-34.987,34.133c5.616-8.424,10.278-17.606,14.097-27.095
				c4.423-10.647,7.762-21.64,9.845-32.588C378.753,167.579,383,176.942,383,186.307z M152.6,143.64h204.8
				c-0.464,6.03-1.413,12.16-2.802,18.299c-0.095,0.407-0.189,0.814-0.288,1.221c-0.149,0.632-0.299,1.264-0.457,1.895
				c-3.715,14.492-9.803,28.974-17.683,42.271c-0.07,0.117-0.14,0.235-0.21,0.351c-0.338,0.567-0.692,1.122-1.037,1.685
				C315.9,239.918,286.844,263.107,255,263.107C202.093,263.107,156.867,199.107,152.6,143.64z M408.6,280.173v68.267H135.533
				v-68.267H408.6z M118.467,280.173v68.267H84.333v-68.267H118.467z M16.067,280.173h51.2v68.267h-51.2V280.173z M480.28,484.973
				H75.8c-33.28,0-59.733-26.453-59.733-59.733S42.52,365.507,75.8,365.507H127h290.133h34.133h29.013
				c-8.533,18.773-12.8,39.253-12.8,59.733C467.48,445.72,471.747,466.2,480.28,484.973z"/>
			<path d="M186.733,322.84h162.133c5.12,0,8.533-3.413,8.533-8.533s-3.413-8.533-8.533-8.533H186.733
				c-5.12,0-8.533,3.413-8.533,8.533S181.613,322.84,186.733,322.84z"/>
			<path d="M237.933,65.133c0,8.533,3.413,16.213,11.093,24.747c1.707,1.707,3.413,2.56,5.973,2.56c1.707,0,4.267-0.853,5.12-2.56
				c4.267-3.413,4.267-8.533,0.853-11.947c-2.56-2.56-5.973-7.68-5.973-11.947c0-3.413,2.56-6.827,5.973-10.24
				c7.68-7.68,11.093-15.36,11.093-23.893c0-7.68-4.267-15.36-11.093-21.333c-3.413-3.413-8.533-3.413-11.947,0
				s-3.413,8.533,0,11.947c4.267,3.413,5.973,6.827,5.973,10.24c0,4.267-3.413,8.533-5.973,11.093
				C242.2,49.773,237.933,57.453,237.933,65.133z"/>
			<path d="M297.667,65.133c0,8.533,3.413,16.213,11.093,24.747c1.707,1.707,3.413,2.56,5.973,2.56c1.707,0,4.267-0.853,5.12-2.56
				c4.267-3.413,4.267-8.533,0.853-11.947c-2.56-2.56-5.973-7.68-5.973-11.947c0-3.413,2.56-6.827,5.973-10.24
				c7.68-7.68,11.093-15.36,11.093-23.893c0-7.68-4.267-15.36-11.093-21.333c-3.413-3.413-8.533-3.413-11.947,0
				s-3.413,8.533,0,11.947c4.267,3.413,5.973,6.827,5.973,10.24c0,4.267-3.413,8.533-5.973,11.093
				C301.933,49.773,297.667,57.453,297.667,65.133z"/>
			<path d="M178.2,65.133c0,8.533,3.413,16.213,11.093,24.747c1.707,1.707,3.413,2.56,5.973,2.56c1.707,0,4.267-0.853,5.12-2.56
				c4.267-3.413,4.267-8.533,0.853-11.947c-2.56-2.56-5.973-7.68-5.973-11.947c0-3.413,2.56-6.827,5.973-10.24
				c7.68-7.68,11.093-15.36,11.093-23.893c0-7.68-4.267-15.36-11.093-21.333c-3.413-3.413-8.533-3.413-11.947,0
				s-3.413,8.533,0,11.947c4.267,3.413,5.973,6.827,5.973,10.24c0,4.267-3.413,8.533-5.973,11.093
				C182.467,49.773,178.2,57.453,178.2,65.133z"/>
		</g>
	</g>
</g>
</svg>