<?xml version="1.0" encoding="utf-8"?>
<!-- Uploaded to: SVG Repo, www.svgrepo.com, Generator: SVG Repo Mixer Tools -->
<svg version="1.1" id="Uploaded to svgrepo.com" xmlns="http://www.w3.org/2000/svg" xmlns:xlink="http://www.w3.org/1999/xlink" 
	 width="800px" height="800px" viewBox="0 0 32 32" xml:space="preserve">
<style type="text/css">
	.hatch_een{fill:#265AA5;}
	.hatch_twee{fill:#FFC5BB;}
	.st0{fill:#333B3A;}
</style>
<g>
	<path class="hatch_twee" d="M4,13.552l-1.63,1.63c-0.07-0.433-0.127-0.849-0.173-1.241L6,10.138v1.004
		c-0.018,0.01-1.555,1.026-1.555,1.026C4.167,12.353,4,12.666,4,13V13.552z M9,16.552L17.552,8h-1.414L9,15.138V16.552z M4,17
		v-0.862l-1.185,1.185c0.094,0.366,0.197,0.736,0.315,1.099l0.974-0.974C4.037,17.315,4,17.16,4,17z M8.555,12.168
		c0.171,0.114,0.297,0.273,0.371,0.458L13.552,8h-1.414l-3.936,3.936L8.555,12.168z M7,10.552L9.552,8H8.138L7,9.138V10.552z
		 M4.138,8L2,10.138V11c0,0,0,0.198,0.011,0.541L5.552,8H4.138z M13.552,24l10.249-10.249c0.07-0.594,0.117-1.128,0.146-1.56
		L12.138,24H13.552z M8.196,23.943C8.452,23.981,8.723,24,9,24h0.552L24,9.552V8.138L8.196,23.943z M20.138,8L5.524,22.614
		c0.247,0.232,0.512,0.439,0.794,0.62L21.552,8H20.138z M6.138,18l-2.27,2.27c0.155,0.315,0.322,0.62,0.504,0.91L7.552,18H6.138z
		 M17,24c0.202,0,0.394-0.01,0.584-0.032l5.065-5.065c0.24-0.662,0.44-1.343,0.602-2.016L16.138,24H17z"/>
	<path class="hatch_een" d="M27.599,9C26.547,9,25.702,9.2,25,9.5V8c0-0.552-0.448-1-1-1H2C1.448,7,1,7.448,1,8v3
		c-0.001,0.342,0.015,8.504,3.686,12.186C5.885,24.39,7.337,25,9,25h8c3.285,0,5.218-2.37,6.359-5.16
		c2.549-0.371,4.207-1.388,5.185-2.284c1.462-1.338,2.3-3.116,2.3-4.877C30.844,10.479,29.54,9,27.599,9z M17,24H9
		c-7.042,0-7-13-7-13V8h4v3.142c-0.018,0.01-1.555,1.026-1.555,1.026C4.167,12.353,4,12.666,4,13v4c0,0.552,0.448,1,1,1h3
		c0.552,0,1-0.448,1-1v-4c0-0.334-0.167-0.647-0.445-0.832c0,0-1.537-1.015-1.555-1.026V8h17v3C24,11,23.917,24,17,24z M6.5,12L8,13
		v4H5v-4L6.5,12z M27.869,16.819c-0.798,0.731-2.117,1.551-4.11,1.94c1.187-3.59,1.239-7.452,1.241-7.753v-0.398
		C25.652,10.25,26.489,10,27.599,10c1.657,0,2.245,1.443,2.245,2.679C29.844,14.139,29.105,15.687,27.869,16.819z"/>
</g>
</svg>