<?xml version="1.0" encoding="utf-8"?>
<!-- Uploaded to: SVG Repo, www.svgrepo.com, Generator: SVG Repo Mixer Tools -->
<svg version="1.1" id="Uploaded to svgrepo.com" xmlns="http://www.w3.org/2000/svg" xmlns:xlink="http://www.w3.org/1999/xlink" 
	 width="800px" height="800px" viewBox="0 0 32 32" xml:space="preserve">
<style type="text/css">
	.hatch_een{fill:#265AA5;}
	.hatch_twee{fill:#FFC5BB;}
	.st0{fill:#333B3A;}
</style>
<g>
	<path class="hatch_twee" d="M29.632,6.853l0.707,0.707L10.444,27.455l-0.707-0.707L29.632,6.853z M7.736,24.749l0.707,0.707
		L28.339,5.56l-0.707-0.707L7.736,24.749z M10.685,19.214l-0.707-0.707l-4.242,4.242l0.707,0.707L10.685,19.214z M8.685,17.214
		l-0.707-0.707l-4.242,4.242l0.707,0.707L8.685,17.214z M6.685,15.214l-0.707-0.707l-4.243,4.243l0.707,0.707L6.685,15.214z"/>
	<path class="hatch_een" d="M31,8.222L11.105,28.117L0.993,18.007l4.243-4.243l5.868,5.868L26.757,3.979L31,8.222z M26.757,2.979
		c-0.256,0-0.512,0.098-0.707,0.293L11.104,18.218l-5.161-5.161c-0.195-0.195-0.451-0.293-0.707-0.293s-0.512,0.098-0.707,0.293
		L0.286,17.3c-0.188,0.188-0.293,0.442-0.293,0.707s0.105,0.52,0.293,0.707l10.112,10.11c0.195,0.195,0.451,0.293,0.707,0.293
		c0.256,0,0.512-0.098,0.707-0.293L31.707,8.929c0.391-0.391,0.391-1.024,0-1.414l-4.243-4.243
		C27.269,3.077,27.013,2.979,26.757,2.979L26.757,2.979z"/>
</g>
</svg>