<?xml version="1.0" encoding="utf-8"?>
<!-- Uploaded to: SVG Repo, www.svgrepo.com, Generator: SVG Repo Mixer Tools -->
<svg height="800px" width="800px" version="1.1" id="Uploaded to svgrepo.com" xmlns="http://www.w3.org/2000/svg" xmlns:xlink="http://www.w3.org/1999/xlink" 
	 viewBox="0 0 32 32" xml:space="preserve">
<style type="text/css">
	.hatch_een{fill:#265AA5;}
	.hatch_twee{fill:#FFC5BB;}
</style>
<g>
	<path class="hatch_twee" d="M14.441,17.77l3.327-3.327C17.917,14.763,18,15.123,18,15.5c0,0.048-0.011,0.092-0.014,0.139
		l-2.354,2.354C15.585,17.995,15.548,18,15.5,18C15.123,18,14.761,17.919,14.441,17.77z M13,15.5c0,0.333,0.068,0.649,0.186,0.939
		l3.253-3.253C16.149,13.068,15.833,13,15.5,13c-0.11,0-0.215,0.019-0.321,0.032l-2.146,2.146C13.019,15.285,13,15.39,13,15.5z
		 M6.5,18C7.881,18,9,16.881,9,15.5c0-0.09-0.009-0.184-0.018-0.271l-2.755,2.755C6.315,17.993,6.41,18,6.5,18z M22.837,17.374
		c0.259,0.23,0.566,0.402,0.905,0.509l3.139-3.139c-0.107-0.339-0.281-0.644-0.511-0.903L22.837,17.374z M22,15.5
		c0,0.039-0.001,0.086,0.001,0.124l2.624-2.624C24.586,12.999,24.539,13,24.5,13C23.119,13,22,14.119,22,15.5z M4.078,16.133
		c0.09,0.35,0.249,0.671,0.47,0.944l3.523-3.523c-0.273-0.22-0.581-0.389-0.943-0.471L4.078,16.133z"/>
	<g>
		<path class="hatch_een" d="M15.5,12c-1.93,0-3.5,1.57-3.5,3.5s1.57,3.5,3.5,3.5c1.93,0,3.5-1.57,3.5-3.5S17.43,12,15.5,12z
			 M15.5,18c-1.381,0-2.5-1.119-2.5-2.5c0-1.381,1.119-2.5,2.5-2.5c1.381,0,2.5,1.119,2.5,2.5C18,16.881,16.881,18,15.5,18z"/>
		<path class="hatch_een" d="M24.5,12c-1.93,0-3.5,1.57-3.5,3.5s1.57,3.5,3.5,3.5c1.93,0,3.5-1.57,3.5-3.5S26.43,12,24.5,12z
			 M24.5,18c-1.381,0-2.5-1.119-2.5-2.5c0-1.381,1.119-2.5,2.5-2.5c1.381,0,2.5,1.119,2.5,2.5C27,16.881,25.881,18,24.5,18z"/>
		<path class="hatch_een" d="M6.5,12C4.57,12,3,13.57,3,15.5S4.57,19,6.5,19c1.93,0,3.5-1.57,3.5-3.5S8.43,12,6.5,12z M6.5,18
			C5.119,18,4,16.881,4,15.5C4,14.119,5.119,13,6.5,13S9,14.119,9,15.5C9,16.881,7.881,18,6.5,18z"/>
	</g>
</g>
</svg>