<?xml version="1.0" encoding="utf-8"?>
<!-- Uploaded to: SVG Repo, www.svgrepo.com, Generator: SVG Repo Mixer Tools -->
<svg height="800px" width="800px" version="1.1" id="Uploaded to svgrepo.com" xmlns="http://www.w3.org/2000/svg" xmlns:xlink="http://www.w3.org/1999/xlink" 
	 viewBox="0 0 32 32" xml:space="preserve">
<style type="text/css">
	.hatch_een{fill:#265AA5;}
	.hatch_twee{fill:#FFC5BB;}
	.st0{fill:#C6F759;}
</style>
<g>
	<path class="hatch_twee" d="M7.761,17H6.347L13,10.347v1.414L7.761,17z M5.761,23H4.347L3,24.347v1.414L5.761,23z M6.761,10H5.347
		L3,12.347v1.414L6.761,10z M25.347,30h1.414L29,27.761v-1.414L25.347,30z M9.761,23H8.347L3,28.347v1.414L9.761,23z M9.347,10
		L3,16.347V17h0.761l7-7H9.347z M22.761,30L29,23.761v-0.792h-0.622L21.347,30H22.761z M19,28.347v1.414l6.792-6.792h-1.414
		L19,28.347z M13,27.761v-1.414L9.347,30h1.414L13,27.761z M19,12.347v1.414L22.761,10h-1.414L19,12.347z M19,16.347V17h0.761l7-7
		h-1.414L19,16.347z M10.347,17h1.414L13,15.761v-1.414L10.347,17z M21.792,22.969h-1.414L19,24.347v1.414L21.792,22.969z
		 M13,23.761V23h-0.653l-7,7h1.414L13,23.761z M26.347,17h1.414L29,15.761v-1.414L26.347,17z M22.347,17h1.414L29,11.761v-1.414
		L22.347,17z"/>
	<path class="hatch_een" d="M29,9h-4.759C25.305,8.484,26,7.318,26,6c0-2.206-1.936-4-4.316-4C18.666,2,16.829,4.497,16,6.653
		C15.171,4.497,13.334,2,10.316,2C7.936,2,6,3.794,6,6c0,1.2,0.585,2.266,1.492,3H3c-0.552,0-1,0.434-1,1.125v20.062
		C2,30.566,2.448,31,3,31h26c0.552,0,1-0.434,1-0.812V10.125C30,9.434,29.552,9,29,9z M21.684,3C23.515,3,25,4.343,25,6
		s-1.485,3-3.316,3h-5.158l-0.023-0.401C16.733,6.736,18.443,3,21.684,3z M7,6c0-1.657,1.485-3,3.316-3
		c3.242,0,4.951,3.736,5.181,5.599L15.474,9h-5.158C8.485,9,7,7.657,7,6z M3,10h10v7H3V10z M13,30H3v-7h10V30z M29,30H19v-7.031h10
		V30z M29,22H18v8.031h-4V22H3v-4h11v-8h4v8h11V22z M29,17H19v-7h10V17z"/>
</g>
</svg>