<?xml version="1.0" encoding="iso-8859-1"?>
<!-- Uploaded to: SVG Repo, www.svgrepo.com, Generator: SVG Repo Mixer Tools -->
<svg height="800px" width="800px" version="1.1" id="Layer_1" xmlns="http://www.w3.org/2000/svg" xmlns:xlink="http://www.w3.org/1999/xlink" 
	 viewBox="0 0 503.084 503.084" xml:space="preserve">
<g transform="translate(1 14)">
	<g>
		<path style="fill:#FFE079;" d="M344.6,263.552h34.133c0,72.533-50.347,134.827-120.32,159.573
			c-21.333,7.68-43.52,11.093-67.413,11.093c-103.253,0-187.733-75.947-187.733-170.667H37.4c0,42.667,42.667,136.533,153.6,136.533
			S344.6,306.219,344.6,263.552"/>
		<path style="fill:#FFE079;" d="M469.187,146.645c50.347,87.893,33.28,194.56-37.547,250.88c2.56,11.093-1.707,23.04-11.947,29.013
			c-10.24,5.973-23.04,4.267-31.573-4.267c-22.187,8.533-46.08,12.8-69.12,11.947c0,0-37.547,0-59.733-8.533l-0.853-2.56
			c70.827-24.747,120.32-86.187,120.32-159.573H344.6H191h-64.853c-2.56-12.8-2.56-34.133-2.56-34.133
			c-1.707-58.88,21.333-115.2,66.56-151.04c-2.56-11.093,1.707-23.04,11.947-29.013c10.24-5.973,23.04-4.267,31.573,4.267
			C317.293,20.352,418.84,58.752,469.187,146.645"/>
	</g>
	<path style="fill:#F2EDDA;" d="M191,263.552h153.6c0,42.667-42.667,136.533-153.6,136.533S37.4,306.219,37.4,263.552h88.747H191z"
		/>
</g>
<path style="fill:#51565F;" d="M192,452.485c-105.813,0-192-78.507-192-174.933c0-2.56,1.707-4.267,4.267-4.267H38.4
	c2.56,0,4.267,1.707,4.267,4.267c0,44.373,45.227,132.267,149.333,132.267c100.693,0,146.773-81.92,149.333-128H203.947
	l75.947,60.587c0.853,0.853,1.707,1.707,1.707,3.413c0,0.853,0,1.707-0.853,2.56c-1.707,1.707-4.267,1.707-5.973,0.853
	l-78.507-63.147v93.867c0,2.56-1.707,4.267-4.267,4.267s-4.267-1.707-4.267-4.267v-93.867l-78.507,63.147
	c-1.707,1.707-4.267,0.853-5.973-0.853c-0.853-0.853-0.853-1.707-0.853-2.56c0-0.853,0.853-2.56,1.707-3.413l75.947-60.587H72.533
	c-2.56,0-4.267-1.707-4.267-4.267c0-2.56,1.707-4.267,4.267-4.267H192l0,0l0,0h153.6c2.56,0,4.267,1.707,4.267,4.267
	c0,47.787-47.787,140.8-157.867,140.8c-106.667,0-155.307-87.893-157.867-136.533h-25.6c2.56,89.6,83.627,162.133,183.467,162.133
	c101.547,0,183.467-74.24,183.467-166.4c0-2.56,1.707-4.267,4.267-4.267c2.56,0,4.267,1.707,4.267,4.267
	C384,373.979,297.813,452.485,192,452.485z M326.827,452.485c-2.56,0-4.267,0-6.827,0c-2.56,0-4.267-1.707-4.267-4.267
	s1.707-4.267,4.267-4.267c23.04,0.853,46.08-2.56,67.413-11.093c1.707-0.853,3.413,0,4.267,0.853
	c6.827,6.827,17.92,8.533,26.453,3.413s12.8-15.36,10.24-24.747c-0.853-1.707,0-3.413,1.707-4.267
	c69.12-55.467,85.333-161.28,36.693-245.76s-147.627-123.733-230.4-91.307c-1.707,0.853-3.413,0-4.267-0.853
	c-6.827-6.827-17.92-8.533-26.453-3.413c-8.533,5.12-12.8,15.36-10.24,24.747c0.853,1.707,0,3.413-1.707,4.267
	c-43.52,34.133-66.56,87.893-64.853,147.627c0,2.56-1.707,4.267-4.267,4.267c-2.56,0-4.267-1.707-4.267-4.267
	c-1.707-61.44,22.187-116.053,65.707-152.747c-1.707-12.8,3.413-24.747,14.507-31.573c11.093-5.973,24.747-5.12,34.133,2.56
	c86.187-32.427,188.587,8.533,238.933,95.573s34.987,196.267-36.693,254.293c1.707,12.8-3.413,24.747-14.507,31.573
	c-11.093,5.973-24.747,5.12-34.133-2.56C368.64,449.072,348.16,452.485,326.827,452.485z M418.133,170.885
	c-5.12,0-8.533-3.413-8.533-8.533c0-5.12,3.413-8.533,8.533-8.533s8.533,3.413,8.533,8.533
	C426.667,167.472,423.253,170.885,418.133,170.885z M375.467,162.352c-5.12,0-8.533-3.413-8.533-8.533s3.413-8.533,8.533-8.533
	s8.533,3.413,8.533,8.533S380.587,162.352,375.467,162.352z M375.467,119.685c-5.12,0-8.533-3.413-8.533-8.533
	c0-5.12,3.413-8.533,8.533-8.533s8.533,3.413,8.533,8.533C384,116.272,380.587,119.685,375.467,119.685z"/>
</svg>