<?xml version="1.0" encoding="utf-8"?>
<!-- Uploaded to: SVG Repo, www.svgrepo.com, Generator: SVG Repo Mixer Tools -->
<svg version="1.1" id="Uploaded to svgrepo.com" xmlns="http://www.w3.org/2000/svg" xmlns:xlink="http://www.w3.org/1999/xlink" 
	 width="800px" height="800px" viewBox="0 0 32 32" xml:space="preserve">
<style type="text/css">
	.hatch_een{fill:#265AA5;}
	.hatch_twee{fill:#FFC5BB;}
</style>
<g>
	<path class="hatch_twee" d="M4.707,14L1,17.707v-1.414L3.293,14H4.707z M8.621,6.086L7.914,5.379L4.379,8.914l0.707,0.707
		L8.621,6.086z M7.086,11.621l3.536-3.536L9.914,7.379l-3.536,3.536L7.086,11.621z M6.293,19h0.051
		c0.095,0.348,0.202,0.699,0.334,1.03l3.333-3.333C10.008,16.631,10,16.567,10,16.5c0-0.482,0.069-0.947,0.186-1.393L6.293,19z
		 M20.495,14.212L27.107,7.6L26.4,6.893l-6.423,6.423C20.177,13.597,20.35,13.896,20.495,14.212z M18,7.293l-3.893,3.893
		C14.553,11.069,15.018,11,15.5,11c0.067,0,0.131,0.008,0.197,0.01l3.328-3.328C18.693,7.551,18.348,7.439,18,7.344V7.293z
		 M20.99,16.303C20.992,16.369,21,16.433,21,16.5c0,0.482-0.069,0.947-0.186,1.393L24.707,14h-0.051
		c-0.095-0.348-0.21-0.691-0.341-1.022L20.99,16.303z M18.684,12.023L25.107,5.6L24.4,4.893l-6.612,6.612
		C18.104,11.65,18.403,11.823,18.684,12.023z M15.293,2L13,4.293v1.414L16.707,2H15.293z M23.914,21.379l-3.536,3.536l0.707,0.707
		l3.536-3.536L23.914,21.379z M22.379,26.914l0.707,0.707l3.536-3.536l-0.707-0.707L22.379,26.914z M26.293,19h1.414L30,16.707
		v-1.414L26.293,19z M18,3.293L2.293,19h1.414L18,4.707V3.293z M15.707,31L18,28.707v-1.414L14.293,31H15.707z M10.505,18.788
		L3.893,25.4L4.6,26.107l6.423-6.423C10.823,19.403,10.65,19.104,10.505,18.788z M27.293,14L13,28.293v1.414L28.707,14H27.293z
		 M12.316,20.977L5.893,27.4L6.6,28.107l6.612-6.612C12.896,21.35,12.597,21.177,12.316,20.977z M13,25.707l3.893-3.893
		C16.447,21.931,15.982,22,15.5,22c-0.067,0-0.131-0.008-0.197-0.01l-3.327,3.327c0.331,0.132,0.676,0.244,1.024,0.339V25.707z"/>
	<path class="hatch_een" d="M18,7.344c0.781,0.213,1.521,0.519,2.208,0.912l3.777-3.777l3.536,3.536l-3.777,3.777
		c0.393,0.687,0.7,1.428,0.912,2.208H30v5h-5.344c-0.213,0.781-0.519,1.521-0.912,2.208l3.777,3.777l-3.536,3.536l-3.777-3.777
		c-0.687,0.393-1.428,0.7-2.208,0.912V31h-5v-5.344c-0.781-0.213-1.521-0.519-2.208-0.912l-3.777,3.777l-3.536-3.536l3.777-3.777
		c-0.393-0.687-0.7-1.428-0.912-2.208H1v-5h5.344c0.213-0.781,0.519-1.521,0.912-2.208L3.479,8.015l3.536-3.536l3.777,3.777
		c0.687-0.393,1.428-0.7,2.208-0.912V2h5V7.344z M13,1c-0.552,0-1,0.448-1,1v4.609c-0.349,0.123-0.689,0.263-1.02,0.421L7.722,3.772
		C7.527,3.577,7.271,3.479,7.015,3.479S6.503,3.577,6.308,3.772L2.772,7.308c-0.391,0.391-0.391,1.024,0,1.414L6.03,11.98
		C5.872,12.311,5.731,12.651,5.609,13H1c-0.552,0-1,0.448-1,1v5c0,0.552,0.448,1,1,1h4.609c0.123,0.349,0.263,0.689,0.421,1.02
		l-3.258,3.258c-0.391,0.391-0.391,1.024,0,1.414l3.535,3.536c0.195,0.195,0.451,0.293,0.707,0.293s0.512-0.098,0.707-0.293
		l3.258-3.258c0.331,0.158,0.672,0.298,1.02,0.421V31c0,0.552,0.448,1,1,1h5c0.552,0,1-0.448,1-1v-4.609
		c0.349-0.123,0.689-0.263,1.02-0.421l3.258,3.258c0.195,0.195,0.451,0.293,0.707,0.293s0.512-0.098,0.707-0.293l3.535-3.536
		c0.391-0.391,0.391-1.024,0-1.414L24.97,21.02c0.158-0.331,0.298-0.672,0.421-1.02H30c0.552,0,1-0.448,1-1v-5c0-0.552-0.448-1-1-1
		h-4.609c-0.123-0.349-0.263-0.689-0.421-1.02l3.258-3.258c0.391-0.391,0.391-1.024,0-1.414l-3.535-3.536
		c-0.195-0.195-0.451-0.293-0.707-0.293s-0.512,0.098-0.707,0.293L20.02,7.03C19.689,6.872,19.349,6.731,19,6.609V2
		c0-0.552-0.448-1-1-1H13z M20,16.5c0,2.453-2.015,4.5-4.5,4.5S11,18.985,11,16.5s2.018-4.5,4.5-4.5S20,14.047,20,16.5z M10,16.5
		c0,3.033,2.467,5.5,5.5,5.5s5.5-2.467,5.5-5.5S18.528,11,15.5,11S10,13.467,10,16.5z"/>
</g>
</svg>