<?xml version="1.0" encoding="utf-8"?>
<!-- Uploaded to: SVG Repo, www.svgrepo.com, Generator: SVG Repo Mixer Tools -->
<svg version="1.1" id="Uploaded to svgrepo.com" xmlns="http://www.w3.org/2000/svg" xmlns:xlink="http://www.w3.org/1999/xlink" 
	 width="800px" height="800px" viewBox="0 0 32 32" xml:space="preserve">
<style type="text/css">
	.hatch_een{fill:#265AA5;}
	.hatch_twee{fill:#FFC5BB;}
</style>
<g>
	<path class="hatch_twee" d="M21.793,5h1.414l-1,1h-1.414L21.793,5z M16.793,6h1.414l1-1h-1.414L16.793,6z M4.793,6h1.414l1-1H5.793
		L4.793,6z M8.793,6h1.414l1-1H9.793L8.793,6z M24.793,6h1.414l1-1h-1.414L24.793,6z M2,10.207V8.793l-1,1v1.414L2,10.207z
		 M16.793,26L16,26.793V27h1.207l1-1H16.793z M27.793,27h1.414L30,26.207v-1.414L27.793,27z M29,7v0.207l1-1V5h-0.207l-1.21,1.21
		C28.83,6.392,29,6.67,29,7z M3.207,5H1.793L1,5.793v1.414L3.207,5z M2,25v-0.207l-1,1V27h0.207l1.21-1.21C2.17,25.608,2,25.33,2,25
		z M14.207,6L15,5.207V5h-1.207l-1,1H14.207z M2,14.207v-1.414l-1,1v1.414L2,14.207z M29,21.793v1.414l1-1v-1.414L29,21.793z
		 M2,18.207v-1.414l-1,1v1.414L2,18.207z M29,17.793v1.414l1-1v-1.414L29,17.793z M29,9.793v1.414l1-1V8.793L29,9.793z M29,13.793
		v1.414l1-1v-1.414L29,13.793z M26.207,26h-1.414l-1,1h1.414L26.207,26z M2,22.207v-1.414l-1,1v1.414L2,22.207z M22.207,26h-1.414
		l-1,1h1.414L22.207,26z M6.207,26H4.793l-1,1h1.414L6.207,26z M10.207,26H8.793l-1,1h1.414L10.207,26z M14.207,26h-1.414l-1,1
		h1.414L14.207,26z"/>
	<path class="hatch_een" d="M12.467,11H5.533C5.239,11,5,10.776,5,10.5S5.239,10,5.533,10h6.933C12.761,10,13,10.224,13,10.5
		S12.761,11,12.467,11z M13,13.5c0-0.276-0.239-0.5-0.533-0.5H5.533C5.239,13,5,13.224,5,13.5S5.239,14,5.533,14h6.933
		C12.761,14,13,13.776,13,13.5z M13,16.5c0-0.276-0.239-0.5-0.533-0.5H5.533C5.239,16,5,16.224,5,16.5S5.239,17,5.533,17h6.933
		C12.761,17,13,16.776,13,16.5z M13,19.5c0-0.276-0.239-0.5-0.533-0.5H5.533C5.239,19,5,19.224,5,19.5S5.239,20,5.533,20h6.933
		C12.761,20,13,19.776,13,19.5z M26,10.5c0-0.276-0.239-0.5-0.533-0.5h-6.933C18.239,10,18,10.224,18,10.5s0.239,0.5,0.533,0.5
		h6.933C25.761,11,26,10.776,26,10.5z M26,13.5c0-0.276-0.239-0.5-0.533-0.5h-6.933C18.239,13,18,13.224,18,13.5
		s0.239,0.5,0.533,0.5h6.933C25.761,14,26,13.776,26,13.5z M26,16.5c0-0.276-0.239-0.5-0.533-0.5h-6.933
		C18.239,16,18,16.224,18,16.5s0.239,0.5,0.533,0.5h6.933C25.761,17,26,16.776,26,16.5z M26,19.5c0-0.276-0.239-0.5-0.533-0.5
		h-6.933C18.239,19,18,19.224,18,19.5s0.239,0.5,0.533,0.5h6.933C25.761,20,26,19.776,26,19.5z M31,5v22c0,0.552-0.448,1-1,1H1
		c-0.552,0-1-0.448-1-1V5c0-0.552,0.448-1,1-1h29C30.552,4,31,4.448,31,5z M16,25h12V7H16V25z M15,27v-1H3c-0.552,0-1-0.448-1-1V7
		c0-0.552,0.448-1,1-1h12V5H1v22H15z M15,7H3v18h12V7z M30,5H16v1h12c0.552,0,1,0.448,1,1v18c0,0.552-0.448,1-1,1H16v1h14V5z"/>
</g>
</svg>