<?xml version="1.0" encoding="utf-8"?>
<!-- Uploaded to: SVG Repo, www.svgrepo.com, Generator: SVG Repo Mixer Tools -->
<svg height="800px" width="800px" version="1.1" id="Uploaded to svgrepo.com" xmlns="http://www.w3.org/2000/svg" xmlns:xlink="http://www.w3.org/1999/xlink" 
	 viewBox="0 0 32 32" xml:space="preserve">
<style type="text/css">
	.hatch_een{fill:#265AA5;}
	.hatch_twee{fill:#FFC5BB;}
</style>
<g>
	<path class="hatch_twee" d="M7.961,11.184l-4.954,4.954C3.006,16.091,3,16.047,3,16c0-0.451,0.025-0.896,0.067-1.336L15.681,2.05
		C16.054,2.019,16.419,2,16.799,2c0.111,0,0.229,0.003,0.34,0.006l-4.97,4.97C10.386,7.921,8.915,9.389,7.961,11.184z M23.069,8.071
		L23.04,8.105l5.121-5.121L28.097,2.38l-2.514,2.846c-0.191-0.174-0.388-0.331-0.593-0.485l-2.736,2.736
		C22.534,7.663,22.808,7.858,23.069,8.071z M20.144,29.586c0.752-0.193,1.48-0.45,2.177-0.763l2.807-2.807l-0.642-0.772
		L20.144,29.586z M12.431,2.714c-0.94,0.322-1.815,0.73-2.653,1.239L5.025,8.706c-0.513,0.841-0.928,1.726-1.258,2.672L12.431,2.714
		z M16.799,30c0.122,0,0.224,0.003,0.346,0l6.168-6.168l-0.048-0.057c-0.917,0.786-1.976,1.404-3.129,1.82l-4.368,4.368
		C16.105,29.988,16.456,30,16.799,30z M13.539,29.606l3.432-3.432c-0.057,0.001-0.114,0.008-0.171,0.008
		c-0.398,0-0.789-0.03-1.175-0.076l-3.187,3.187C12.797,29.415,13.167,29.514,13.539,29.606z M6.782,16.363
		C6.777,16.242,6.763,16.123,6.763,16c0-0.369,0.022-0.733,0.06-1.093l-3.599,3.599c0.07,0.391,0.151,0.783,0.252,1.162
		L6.782,16.363z M22.731,11h1.414l4.395-4.395l-0.134-1.28L22.731,11z M19.522,6.209c0.357,0.103,0.704,0.229,1.043,0.371
		l2.854-2.854c-0.305-0.171-0.617-0.331-0.935-0.479L19.522,6.209z M15.865,5.866c0.308-0.029,0.619-0.048,0.935-0.048
		c0.17,0,0.337,0.014,0.505,0.023l3.291-3.291c-0.372-0.109-0.74-0.212-1.125-0.289L15.865,5.866z M26.731,11h1.414l0.774-0.774
		l-0.134-1.28L26.731,11z M8.894,22.251c-0.206-0.268-0.399-0.547-0.578-0.836l-2.73,2.737c0.195,0.275,0.398,0.536,0.612,0.796
		L8.894,22.251z M7.456,19.689c-0.134-0.348-0.247-0.705-0.343-1.071L4.151,21.58c0.14,0.326,0.292,0.646,0.456,0.958L7.456,19.689z
		 M10.915,24.23c-0.27-0.199-0.529-0.411-0.778-0.636l-2.69,2.687c0.244,0.229,0.491,0.45,0.751,0.661L10.915,24.23z M13.529,25.616
		c-0.342-0.12-0.675-0.259-0.999-0.415l-2.814,2.814c0.296,0.18,0.603,0.344,0.913,0.501L13.529,25.616z"/>
	<path class="hatch_een" d="M25.583,5.226l2.514-2.846L29,11h-8.439l2.508-2.929c-1.72-1.403-3.896-2.253-6.27-2.253
		C11.266,5.818,6.763,10.386,6.763,16s4.502,10.182,10.036,10.182c2.463,0,4.718-0.908,6.466-2.407l2.425,2.916
		C23.286,28.751,20.186,30,16.799,30C9.19,30,3,23.72,3,16S9.182,2,16.799,2C22.19,2,25.583,5.226,25.583,5.226z M16.799,1
		C8.639,1,2,7.729,2,16s6.639,15,14.799,15c3.483,0,6.871-1.261,9.542-3.551c0.415-0.356,0.467-0.978,0.118-1.399l-2.425-2.916
		c-0.171-0.206-0.418-0.335-0.685-0.357c-0.028-0.002-0.056-0.004-0.084-0.004c-0.238,0-0.469,0.085-0.651,0.241
		c-1.629,1.397-3.694,2.166-5.815,2.166c-4.982,0-9.036-4.119-9.036-9.182s4.053-9.182,9.036-9.182c1.722,0,3.365,0.489,4.808,1.423
		l-1.805,2.109c-0.254,0.297-0.312,0.714-0.149,1.068C19.816,11.773,20.171,12,20.561,12H29c0.283,0,0.553-0.12,0.743-0.331
		s0.281-0.492,0.252-0.773l-0.903-8.62c-0.041-0.395-0.312-0.727-0.69-0.848c-0.1-0.032-0.203-0.048-0.305-0.048
		c-0.282,0-0.556,0.119-0.75,0.338l-1.89,2.139C22.941,2.008,19.902,1,16.799,1L16.799,1z"/>
</g>
</svg>