<?xml version="1.0" encoding="utf-8"?>
<!-- Uploaded to: SVG Repo, www.svgrepo.com, Generator: SVG Repo Mixer Tools -->
<svg version="1.1" id="Uploaded to svgrepo.com" xmlns="http://www.w3.org/2000/svg" xmlns:xlink="http://www.w3.org/1999/xlink" 
	 width="800px" height="800px" viewBox="0 0 32 32" xml:space="preserve">
<style type="text/css">
	.hatch_een{fill:#265AA5;}
	.hatch_twee{fill:#FFC5BB;}
</style>
<g>
	<path class="hatch_twee" d="M13,24.84l1-1v1.414l-1,1V24.84z M12,22c0.342,0,0.645,0.176,0.825,0.429L14,21.254V19.84L11.84,22H12z
		 M10,29c-0.318,0-0.599-0.147-0.782-0.378L8,29.84V30h1.254l1-1H10z M13.254,30L14,29.254V27.84L11.84,30H13.254z M9,24.84l-1,1
		v1.414l1-1V24.84z M29.471,25.783l0.872-0.872l-0.197-1.217l-0.872,0.872L29.471,25.783z M28.505,21.654
		c0.215,0.155,0.36,0.389,0.402,0.651l0.006,0.036l0.872-0.872l-0.197-1.217l-1.28,1.291C28.381,21.574,28.439,21.607,28.505,21.654
		z M10.84,11L8,13.84v1.414L12.254,11H10.84z M9.84,8L8,9.84v1.414L11.254,8H9.84z M26.726,12.528l1.384-1.384L27.973,10.3
		l-0.516,0.084l-2.418,2.418L26.726,12.528z M28.471,13.37l-5.23,5.23l0.197,1.217l5.23-5.23L28.471,13.37z M25.229,24.612
		l-0.872,0.872l0.197,1.217l0.872-0.872L25.229,24.612z M29.029,16.811l-5.23,5.23l0.197,1.217l5.23-5.23L29.029,16.811z
		 M26.161,28.532c-0.172-0.124-0.297-0.292-0.363-0.491l-0.883,0.883l0.177,1.091l0.175-0.028l1.286-1.286
		C26.411,28.674,26.281,28.619,26.161,28.532z M30.704,27.137l-2.35,2.35l1.688-0.274l0.859-0.859L30.704,27.137z M24.011,13.982
		c-0.05,0.008-0.105,0.008-0.154,0.001l-1.175,1.175l0.197,1.217l2.637-2.637L24.011,13.982z M11.84,10h0.66
		c0.204,0,0.378,0.123,0.456,0.298L14,9.254V8h-0.16L11.84,10z M8,19.254l6-6V11.84l-6,6V19.254z M8,23.254l6-6V15.84l-6,6V23.254z
		 M22.682,11.158l-0.558,0.558l0.197,1.217l2.049-2.049L22.682,11.158z"/>
	<path class="hatch_een" d="M13,10.5c0,0.276-0.224,0.5-0.5,0.5h-3C9.224,11,9,10.776,9,10.5S9.224,10,9.5,10h3
		C12.776,10,13,10.224,13,10.5z M16.5,4h3C19.776,4,20,3.776,20,3.5S19.776,3,19.5,3h-3C16.224,3,16,3.224,16,3.5S16.224,4,16.5,4z
		 M5.5,7h-3C2.224,7,2,7.224,2,7.5S2.224,8,2.5,8h3C5.776,8,6,7.776,6,7.5S5.776,7,5.5,7z M13,23v5c0,0.552-0.448,1-1,1h-2
		c-0.552,0-1-0.448-1-1v-5c0-0.552,0.448-1,1-1h2C12.552,22,13,22.448,13,23z M12,23h-2v5h2V23z M32.002,28.895
		c0.088,0.545-0.282,1.059-0.827,1.147c0,0-6.029,0.974-6.083,0.974c-0.209,0-0.413-0.065-0.585-0.189
		c-0.215-0.155-0.36-0.389-0.402-0.651L22,17.198V30c0,0.552-0.448,1-1,1h-6c-0.186,0-0.351-0.065-0.5-0.153
		C14.351,30.935,14.186,31,14,31H8c-0.186,0-0.351-0.065-0.5-0.153C7.351,30.935,7.186,31,7,31H1c-0.552,0-1-0.448-1-1V5
		c0-0.552,0.448-1,1-1h6c0.552,0,1,0.448,1,1v2h6V2c0-0.552,0.448-1,1-1h6c0.552,0,1,0.448,1,1v8.256c0,0,5.921-0.956,5.974-0.956
		c0.482,0,0.906,0.349,0.986,0.84L32.002,28.895z M7,30V5H1v25H7z M14,30V8H8v22H14z M21,2h-6v28h6V2z M31.015,29.055L27.973,10.3
		l-5.923,0.961l3.042,18.755L31.015,29.055z M27.386,12.928c-0.044-0.273-0.301-0.458-0.574-0.414l-2.961,0.48
		c-0.273,0.044-0.458,0.301-0.414,0.574c0.044,0.273,0.301,0.458,0.574,0.413l2.961-0.48C27.245,13.457,27.43,13.201,27.386,12.928z
		 M27.92,21.465c0.209,0,0.413,0.065,0.585,0.189c0.215,0.155,0.36,0.389,0.402,0.651l0.801,4.935
		c0.088,0.545-0.282,1.059-0.827,1.147c0,0-2.081,0.333-2.134,0.333c-0.209,0-0.413-0.065-0.585-0.189
		c-0.215-0.155-0.36-0.389-0.402-0.651l-0.801-4.935c-0.088-0.545,0.282-1.059,0.827-1.147
		C25.785,21.799,27.866,21.465,27.92,21.465z M27.92,22.465l-1.974,0.32l0.801,4.935l1.974-0.32L27.92,22.465z M6,23v5
		c0,0.552-0.448,1-1,1H3c-0.552,0-1-0.448-1-1v-5c0-0.552,0.448-1,1-1h2C5.552,22,6,22.448,6,23z M5,23H3v5h2V23z M16,28v-5
		c0-0.552,0.448-1,1-1h2c0.552,0,1,0.448,1,1v5c0,0.552-0.448,1-1,1h-2C16.448,29,16,28.552,16,28z M17,28h2v-5h-2V28z"/>
</g>
</svg>