<?xml version="1.0" encoding="utf-8"?>
<!-- Uploaded to: SVG Repo, www.svgrepo.com, Generator: SVG Repo Mixer Tools -->
<svg version="1.1" id="Uploaded to svgrepo.com" xmlns="http://www.w3.org/2000/svg" xmlns:xlink="http://www.w3.org/1999/xlink" 
	 width="800px" height="800px" viewBox="0 0 32 32" xml:space="preserve">
<style type="text/css">
	.hatch_een{fill:#265AA5;}
	.hatch_twee{fill:#FFC5BB;}
</style>
<g>
	<path class="hatch_een" d="M27.733,9.737C26.692,5.222,22.683,2,18,2c-4.414,0-8.287,2.916-9.559,7.062C8.125,9.021,7.811,9,7.5,9
		C3.365,9,0,12.365,0,16.5C0,20.776,3.009,24,7,24h2v1H7c-0.395,0-0.753,0.232-0.914,0.593c-0.161,0.361-0.094,0.782,0.17,1.076
		l4.5,5C10.946,31.88,11.216,32,11.5,32s0.554-0.12,0.743-0.331l4.471-4.968c0.178-0.18,0.288-0.428,0.288-0.701
		c0-0.552-0.445-1-0.997-1H16h-2v-1h4v7c0,0.552,0.448,1,1,1h3c0.552,0,1-0.448,1-1v-7h2c3.991,0,7-3.224,7-7.5
		C32,13.576,30.343,10.979,27.733,9.737z M16,26l-4.5,5L7,26h3V15h3v11H16z M22,20v11h-3V20h-3l4.5-5l4.5,5H22z M25,23h-2v-2h2
		c0.395,0,0.753-0.232,0.914-0.593c0.161-0.361,0.094-0.782-0.17-1.076l-4.5-5C21.054,14.12,20.784,14,20.5,14
		s-0.554,0.12-0.743,0.331l-4.5,5c-0.264,0.294-0.331,0.715-0.17,1.076C15.247,20.768,15.605,21,16,21h2v2h-4v-8
		c0-0.552-0.448-1-1-1h-3c-0.552,0-1,0.448-1,1v8H7c-3.59,0-6-2.91-6-6.5S3.91,10,7.5,10c0.581,0,1.141,0.083,1.677,0.226
		C10.001,6.106,13.637,3,18,3c4.44,0,8.12,3.218,8.857,7.447C29.28,11.392,31,13.743,31,16.5C31,20.09,28.59,23,25,23z"/>
	<path class="hatch_twee" d="M23,21h1.308L23,22.308V21z M25.843,19.465l4.868-4.868c-0.107-0.35-0.241-0.688-0.404-1.01
		l-5.123,5.123l0.559,0.621C25.782,19.374,25.813,19.417,25.843,19.465z M25.794,7.514c-0.17-0.296-0.362-0.577-0.563-0.851
		L14,17.894v1.414L25.794,7.514z M24.894,23H25c0.526,0,1.024-0.069,1.495-0.187l4.203-4.203c0.157-0.538,0.253-1.107,0.284-1.698
		L24.894,23z M29.244,12.064c-0.228-0.244-0.476-0.469-0.739-0.675l-5.215,5.215l0.67,0.744L29.244,12.064z M16.894,23H18v-1.106
		L16.894,23z M15.242,20.652L14,21.894V23h0.308l2-2H16C15.704,21,15.429,20.869,15.242,20.652z M26.859,10.449
		c-0.001,0-0.002-0.001-0.002-0.001c-0.067-0.386-0.167-0.761-0.282-1.129l-5.18,5.18l0.67,0.744L26.859,10.449z M18,3
		c-0.405,0-0.802,0.035-1.193,0.087l-15.51,15.51c0.104,0.357,0.23,0.702,0.386,1.028L18.295,3.013C18.196,3.01,18.099,3,18,3z
		 M14,15v0.308L24,5.308c-0.249-0.224-0.506-0.439-0.779-0.635l-9.57,9.568C13.865,14.424,14,14.696,14,15z M5.171,22.723
		c0.372,0.117,0.762,0.201,1.171,0.243L9,20.308v-1.414L5.171,22.723z M5.614,10.28L1.28,14.614c-0.162,0.535-0.252,1.1-0.27,1.684
		l6.288-6.288C6.714,10.028,6.149,10.118,5.614,10.28z M11.308,14L21.564,3.744c-0.336-0.146-0.68-0.274-1.036-0.378L9.888,14.006
		C9.933,14,9.953,14,10,14H11.308z M9.006,14.888l-6.281,6.281c0.227,0.246,0.474,0.471,0.74,0.674L9,16.308V15
		C9,14.953,9,14.933,9.006,14.888z"/>
</g>
</svg>