<?xml version="1.0" ?>
<!DOCTYPE svg  PUBLIC '-//W3C//DTD SVG 1.1//EN'  'http://www.w3.org/Graphics/SVG/1.1/DTD/svg11.dtd'>
<!-- Uploaded to: SVG Repo, www.svgrepo.com, Generator: SVG Repo Mixer Tools -->
<svg width="800px" height="800px" viewBox="0 0 512 512" version="1.1" xml:space="preserve" xmlns="http://www.w3.org/2000/svg" xmlns:xlink="http://www.w3.org/1999/xlink">
<g id="_x34_80_x2C__key_x2C__keyboard_x2C__book_x2C__facebook">
<g>
<path d="M446,41v230h-80H256V109c0-37.56,30.44-68,68-68H446z" style="fill:#FFEBBE;"/>
<path d="M266,119c0-37.56,30.44-68,68-68h112V41H324c-37.56,0-68,30.44-68,68v162h10V119z" style="fill:#EAD4A7;"/>
<path d="M466,311v160H46V311h100h220H466z" style="fill:#D7DEED;"/>
<polygon points="59.333,324.334 159.333,324.334 379.334,324.334 466,324.334 466,311 366,311 146,311     46,311 46,471 59.333,471   " style="fill:#AFB9D2;"/>
<rect height="60" style="fill:#FF7979;" width="110" x="296" y="161"/>
<polygon points="306,171.333 406,171.333 406,161 296,161 296,221 306,221   " style="fill:#D65B5B;"/>
<path d="M256,109v162H146H66V41h122C225.56,41,256,71.44,256,109z" style="fill:#FFEBBE;"/>
<path d="M77.667,53h122c16.119,0,30.917,5.618,42.57,14.987C229.822,51.594,210.153,41,188,41H66v230    h11.667V53z" style="fill:#EAD4A7;"/>
<rect height="20" width="20" x="406" y="421"/>
<rect height="20" width="20" x="406" y="381"/>
<rect height="20" width="20" x="406" y="341"/>
<rect height="20" width="20" x="366" y="421"/>
<rect height="20" width="20" x="366" y="381"/>
<rect height="20" width="20" x="366" y="341"/>
<rect height="20" width="20" x="326" y="421"/>
<rect height="20" width="20" x="326" y="381"/>
<rect height="20" width="20" x="326" y="341"/>
<rect height="20" width="140" x="166" y="421"/>
<rect height="20" width="20" x="286" y="381"/>
<rect height="20" width="20" x="286" y="341"/>
<rect height="20" width="20" x="246" y="381"/>
<rect height="20" width="20" x="246" y="341"/>
<rect height="20" width="20" x="206" y="381"/>
<rect height="20" width="20" x="206" y="341"/>
<rect height="20" width="20" x="166" y="381"/>
<rect height="20" width="20" x="166" y="341"/>
<rect height="20" width="20" x="126" y="421"/>
<rect height="20" width="20" x="126" y="381"/>
<rect height="20" width="20" x="126" y="341"/>
<rect height="20" width="20" x="86" y="421"/>
<rect height="20" width="20" x="86" y="381"/>
<rect height="20" width="20" x="86" y="341"/>
<path d="M256,276H66c-2.761,0-5-2.238-5-5V41c0-2.761,2.239-5,5-5h122c40.252,0,73,32.748,73,73c0,2.761-2.238,5-5,5    c-2.761,0-5-2.239-5-5c0-34.738-28.262-63-63-63H71v220h185c2.762,0,5,2.238,5,5S258.762,276,256,276z"/>
<path d="M446,276H256c-2.761,0-5-2.238-5-5V109c0-40.252,32.748-73,73-73h122c2.762,0,5,2.239,5,5v230    C451,273.762,448.762,276,446,276z M261,266h180V46H324c-34.738,0-63,28.262-63,63V266z"/>
<path d="M406,226H296c-2.762,0-5-2.239-5-5v-60c0-2.761,2.238-5,5-5h110c2.762,0,5,2.239,5,5v60C411,223.761,408.762,226,406,226z     M301,216h100v-50H301V216z"/>
<path d="M406,136H296c-2.762,0-5-2.239-5-5s2.238-5,5-5h110c2.762,0,5,2.239,5,5S408.762,136,406,136z"/>
<path d="M406,106H296c-2.762,0-5-2.239-5-5s2.238-5,5-5h110c2.762,0,5,2.239,5,5S408.762,106,406,106z"/>
<path d="M216,106H106c-2.761,0-5-2.239-5-5s2.239-5,5-5h110c2.761,0,5,2.239,5,5S218.761,106,216,106z"/>
<path d="M166,136h-60c-2.761,0-5-2.239-5-5s2.239-5,5-5h60c2.761,0,5,2.239,5,5S168.761,136,166,136z"/>
<path d="M216,166h-60c-2.761,0-5-2.239-5-5s2.239-5,5-5h60c2.761,0,5,2.239,5,5S218.761,166,216,166z"/>
<path d="M116,168h-10c-2.761,0-5-2.239-5-5s2.239-5,5-5h10c2.761,0,5,2.239,5,5S118.761,168,116,168z"/>
<path d="M216,196H106c-2.761,0-5-2.239-5-5s2.239-5,5-5h110c2.761,0,5,2.239,5,5S218.761,196,216,196z"/>
<path d="M216,226H106c-2.761,0-5-2.239-5-5s2.239-5,5-5h110c2.761,0,5,2.239,5,5S218.761,226,216,226z"/>
<path d="M466,476H46c-2.761,0-5-2.238-5-5V311c0-2.762,2.239-5,5-5h420c2.762,0,5,2.238,5,5v160C471,473.762,468.762,476,466,476z     M51,466h410V316H51V466z"/>
<path d="M146,316c-2.761,0-5-2.238-5-5v-40c0-2.762,2.239-5,5-5s5,2.238,5,5v40C151,313.762,148.761,316,146,316z"/>
<path d="M366,316c-2.762,0-5-2.238-5-5v-40c0-2.762,2.238-5,5-5s5,2.238,5,5v40C371,313.762,368.762,316,366,316z"/>
</g>
</g>
<g id="Layer_1"/>
</svg>